<?xml version="1.0" encoding="UTF-8" standalone="no"?>
<!-- Created with Inkscape (http://www.inkscape.org/) -->
<svg
   xmlns:dc="http://purl.org/dc/elements/1.1/"
   xmlns:cc="http://creativecommons.org/ns#"
   xmlns:rdf="http://www.w3.org/1999/02/22-rdf-syntax-ns#"
   xmlns:svg="http://www.w3.org/2000/svg"
   xmlns="http://www.w3.org/2000/svg"
   xmlns:sodipodi="http://sodipodi.sourceforge.net/DTD/sodipodi-0.dtd"
   xmlns:inkscape="http://www.inkscape.org/namespaces/inkscape"
   id="svg2"
   sodipodi:version="0.32"
   inkscape:version="0.46"
   width="400"
   height="277"
   version="1.0"
   sodipodi:docname="Map_of_Lydia_ancient_times_rus.svg"
   inkscape:output_extension="org.inkscape.output.svg.inkscape">
  <metadata
     id="metadata7">
    <rdf:RDF>
      <cc:Work
         rdf:about="">
        <dc:format>image/svg+xml</dc:format>
        <dc:type
           rdf:resource="http://purl.org/dc/dcmitype/StillImage" />
      </cc:Work>
    </rdf:RDF>
  </metadata>
  <defs
     id="defs5">
    <inkscape:perspective
       sodipodi:type="inkscape:persp3d"
       inkscape:vp_x="0 : 526.18109 : 1"
       inkscape:vp_y="0 : 1000 : 0"
       inkscape:vp_z="744.09448 : 526.18109 : 1"
       inkscape:persp3d-origin="372.04724 : 350.78739 : 1"
       id="perspective9" />
  </defs>
  <sodipodi:namedview
     inkscape:window-height="968"
     inkscape:window-width="1280"
     inkscape:pageshadow="2"
     inkscape:pageopacity="0.0"
     guidetolerance="10.0"
     gridtolerance="10.0"
     objecttolerance="10.0"
     borderopacity="1.0"
     bordercolor="#666666"
     pagecolor="#ffffff"
     id="base"
     showgrid="false"
     inkscape:zoom="2.7545126"
     inkscape:cx="186.15554"
     inkscape:cy="144.40464"
     inkscape:window-x="0"
     inkscape:window-y="22"
     inkscape:current-layer="svg2" />
  <rect
     style="opacity:1;fill:#ffffff;fill-opacity:1;stroke:none;stroke-width:3;stroke-opacity:1"
     id="rect2408"
     width="399.3447"
     height="275.18481"
     x="0.36304063"
     y="0.72608125"
     rx="0"
     ry="0" />
  <path
     style="fill:#da9e3c;fill-rule:evenodd;stroke:none;stroke-width:1px;stroke-linecap:butt;stroke-linejoin:miter;stroke-opacity:1;fill-opacity:1"
     d="M 28.68021,112.90564 C 28.68021,112.59925 28.68021,108.76392 28.68021,106.3709 C 28.68021,104.38823 28.602419,102.32558 29.04325,100.56225 C 29.682514,98.005199 29.933768,98.219574 31.584535,96.568807 C 32.974347,95.178996 32.034476,94.187318 34.125819,93.664482 C 35.320477,93.365818 36.05294,91.038566 36.304063,90.034076 C 36.499446,89.252544 37.504551,89.461674 38.119266,89.307995 C 38.489656,87.826437 41.107139,85.231 41.749672,84.588467 C 43.270934,83.067205 44.003431,84.286407 44.653997,81.684142 C 45.286943,79.152358 45.52728,79.015297 47.921363,78.416776 C 49.862028,77.93161 51.648012,78.731695 53.730013,77.690695 C 54.798576,77.156413 57.791869,78.053735 59.175623,78.053735 C 61.424402,78.053735 60.613996,80.047011 62.806029,80.59502 C 63.289393,80.715861 65.435918,82.432374 66.799476,82.773263 C 68.505505,83.199771 70.834099,82.773263 72.608126,82.773263 C 72.87872,82.773263 72.366099,83.257318 72.245085,83.499345 C 75.303083,83.499345 75.156623,84.807734 77.690695,85.314548 C 78.936764,85.563762 80.548972,82.139277 80.95806,81.321101 C 81.829022,79.579177 83.544716,79.714648 84.588467,79.505898 C 85.972309,79.229129 86.849761,81.341864 88.218873,81.684142 C 90.051473,82.142291 91.581583,80.95806 93.664482,80.95806 C 95.708524,80.95806 96.520825,79.916921 97.657929,78.779817 C 98.682369,77.755377 100.82058,77.690695 102.37746,77.690695 C 103.58342,77.690695 105.67566,79.150566 107.09699,79.505898 C 109.42625,80.088215 109.80132,79.432029 110.36435,81.684142 C 110.42998,81.946657 110.60638,82.168196 110.72739,82.410223 C 110.92108,83.184995 116.46572,82.773263 117.26212,82.773263 C 118.41208,82.773263 119.44962,80.557995 119.80341,79.142857 C 120.28322,77.223617 119.44882,75.166325 118.71429,73.697248 C 117.60999,71.488655 122.05028,70.196893 122.70773,69.703801 C 124.08129,68.673631 126.1207,68.97772 128.15334,68.97772 C 129.88501,68.97772 131.48239,68.614679 133.59895,68.614679 C 135.78474,68.614679 137.17747,68.666568 138.31848,67.525557 C 138.78731,67.056723 142.76109,67.119456 143.40105,66.799476 C 145.41315,65.793425 142.87487,64.095049 141.94889,63.169069 C 141.01961,62.239796 137.75522,62.806029 136.50328,62.806029 C 134.12378,62.806029 133.3177,63.128175 131.78375,63.895151 C 130.25254,64.660755 130.00091,63.201434 128.51638,61.716907 C 127.25272,60.453249 125.65603,60.02544 124.52294,59.175623 C 122.85108,57.92173 121.98165,57.323443 121.98165,55.182176 C 121.98165,53.608903 123.07077,51.735723 123.07077,49.736566 C 123.07077,47.269993 123.51725,46.720994 124.52294,45.380079 C 125.38177,44.234968 128.46753,45.380079 129.6055,45.380079 C 130.25718,45.380079 130.81564,45.864133 131.42071,46.10616 C 134.26987,46.10616 134.98215,48.573924 137.5924,47.921363 C 140.46712,47.202683 139.61938,47.558322 141.94889,47.558322 C 143.83466,47.558322 145.71668,47.501908 147.3945,47.921363 C 149.68026,48.492804 149.27876,49.736566 152.47706,49.736566 C 154.20909,49.736566 155.94865,48.679208 157.92267,48.284404 C 159.12058,48.044823 161.80924,47.558322 164.09436,47.558322 C 166.91839,47.558322 167.32225,47.518841 168.81389,49.010485 C 170.27915,50.475741 171.67899,50.200173 173.53342,49.736566 C 175.69536,49.196082 178.55101,49.736566 180.79423,49.736566 C 182.90207,49.736566 185.06432,49.848927 186.96592,49.373526 C 188.90204,48.889498 189.86461,47.926998 190.95937,46.832241 C 191.15016,46.641454 191.59711,44.830683 191.68545,44.653997 C 193.26142,43.472024 191.89358,40.607331 192.77457,38.845347 C 193.42798,37.538535 195.94115,37.756225 197.4941,37.756225 C 199.98869,37.756225 200.93407,37.168514 202.93971,36.667104 C 205.04754,36.140146 206.80043,34.544824 207.65924,33.399738 C 208.67685,32.042918 210.11359,31.446481 211.28965,30.858453 C 212.73227,30.13714 214.2355,29.364763 215.28309,28.317169 C 216.34569,27.254572 218.47161,26.90443 220.00262,26.138925 C 221.21652,25.531978 222.54995,23.222509 222.90695,22.508519 C 223.64786,21.026689 226.59538,21.419397 228.35256,21.419397 C 230.70926,21.419397 231.53253,21.100051 233.07208,20.330275 C 234.65536,19.538636 237.01104,19.953613 238.51769,20.330275 C 239.29751,20.525231 241.88856,17.32245 242.1481,17.06291 C 243.21588,15.995126 244.5342,15.402895 245.41547,14.521625 C 246.33457,13.602524 249.87342,14.158585 251.22412,14.158585 C 253.40236,14.158585 255.5806,14.158585 257.75885,14.158585 C 259.33282,14.158585 260.19819,15.508803 260.30013,15.610747 C 260.94859,16.259202 265.80729,15.610747 266.83486,15.610747 C 269.06999,15.610747 270.73242,15.610747 273.00655,15.610747 C 274.58515,15.610747 276.06442,14.210958 277.72608,13.795544 C 279.17337,13.433722 280.27964,13.069463 282.08257,13.069463 C 282.6812,12.919806 283.2927,12.827436 283.89777,12.706422 C 285.6578,12.354416 287.91234,12.706422 289.70642,12.706422 C 291.96852,12.706422 294.00887,12.497884 295.87811,13.432503 C 297.91213,14.44951 298.47365,14.131459 300.59764,13.069463 C 301.79209,12.472237 301.12612,10.808498 303.13893,9.802097 C 304.50651,9.1183064 305.50795,10.528178 307.13237,10.528178 C 309.44677,10.528178 309.9495,11.268497 310.39974,13.069463 C 310.69701,14.258532 311.12582,14.850276 311.12582,16.336828 C 311.00481,16.820882 310.88379,17.304937 310.76278,17.788991 C 310.15205,20.231904 311.80698,21.022668 313.30406,22.145478 C 314.63472,23.143468 315.19069,24.323722 317.29751,24.323722 C 318.8254,24.323722 321.43211,25.412844 323.83224,25.412844 C 325.70909,25.412844 327.61451,25.36005 329.27785,25.775885 C 330.89376,26.179862 330.82064,29.405774 331.09305,30.495413 C 331.56213,32.371737 331.45609,34.313096 331.45609,36.304063 C 331.45609,36.426907 328.93331,39.17139 328.55177,39.934469 C 327.99743,41.043144 326.24386,41.879336 325.2844,42.838794 C 323.45303,44.67017 322.74312,44.378396 322.74312,47.195282 C 322.74312,49.176505 322.26795,50.574776 320.92792,51.91481 C 319.77202,53.070711 316.84829,54.499183 315.48231,55.182176 C 313.69271,56.076972 312.65267,56.484954 311.8519,58.086501 C 311.14737,59.495553 311.36378,61.967071 310.76278,63.169069 C 309.69693,65.300766 309.21507,65.805901 307.85845,67.162516 C 306.30661,68.714358 305.57214,69.81187 304.59109,70.792923 C 303.16703,72.21698 301.98895,72.820072 300.2346,73.697248 C 299.8958,73.866649 297.73911,74.048839 297.69332,74.060288 C 296.1891,74.8124 295.28916,78.279643 294.42595,79.142857 C 293.04859,80.520214 291.03523,80.71837 289.70642,82.047182 C 288.01403,83.739579 287.62175,83.99712 285.71298,84.951507 C 284.15599,85.729999 282.41466,85.957607 280.63041,86.40367 C 278.75981,86.871319 277.71408,88.230875 276.63696,89.307995 C 275.30864,90.636319 273.94033,91.330325 273.00655,92.57536 C 271.87138,94.088923 271.1348,95.229743 270.46527,96.568807 C 269.71214,98.075058 270.10223,100.33125 270.10223,102.01442 C 270.10223,103.73898 267.90719,105.20362 266.83486,106.00786 C 265.23551,107.20738 264.92205,108.77947 263.20446,109.63827 C 262.40175,110.03962 263.0918,109.86359 262.84142,110.36435 C 262.96243,110.8484 263.08344,111.33246 263.20446,111.81651 C 263.44716,112.78734 264.90287,114.96709 265.3827,115.44692 C 266.41322,116.47744 266.22539,119.18073 266.47182,120.16645 C 267.00243,122.28887 266.24403,124.06736 267.1979,125.9751 C 268.16324,127.90578 268.9645,129.5083 269.73919,131.05767 C 270.32035,132.21999 270.46527,132.41165 270.46527,133.96199 C 270.46527,135.84059 272.64351,137.1246 272.64351,139.77064 C 272.64351,141.0796 274.23637,141.86724 274.82176,143.03801 C 275.67911,144.75272 274.31818,146.94948 273.73263,148.12058 C 272.74521,150.09543 271.30569,151.27361 270.10223,152.47706 C 268.93424,153.64506 268.15438,154.42492 266.83486,155.74443 C 265.69759,156.8817 264.60159,159.84793 263.93054,161.19004 C 263.02856,162.99399 262.5482,164.6808 261.75229,166.27261 C 260.95161,167.87398 260.0629,168.68808 258.84797,169.90301 C 257.77593,170.97505 256.34644,171.67846 255.21756,172.80734 C 253.83193,174.19297 252.44715,175.24819 250.86107,176.43775 C 249.20532,177.67956 248.24576,179.05307 247.23067,180.06815 C 245.82223,181.47659 245.03148,182.25687 243.60026,182.97248 C 241.95895,183.79313 240.97712,185.59562 239.96986,186.60288 C 238.81364,187.7591 236.79059,188.01099 235.25033,188.78113 C 233.47569,189.66845 232.26984,190.29041 230.89384,191.32241 C 230.57225,191.56361 230.32436,191.89189 230.16776,192.04849 C 229.68371,192.41153 229.19965,192.77457 228.7156,193.13761 C 227.65157,193.93563 226.02468,195.46549 225.08519,196.40498 C 223.78033,197.70984 221.83228,197.4941 220.00262,197.4941 C 218.16774,197.4941 216.98812,199.45621 216.00917,200.76147 C 214.58362,202.66221 213.26056,202.88725 212.74181,205.481 C 212.40991,207.14048 212.74181,209.22795 212.74181,210.92661 C 212.74181,212.74181 212.74181,214.55701 212.74181,216.37221 C 212.74181,218.36318 212.84785,220.30454 212.37877,222.18087 C 211.92692,223.98827 211.34028,224.88265 210.92661,226.53735 C 210.33304,228.91162 209.30013,228.99148 208.02228,228.35256 C 206.57212,227.62748 205.42312,226.11643 204.02883,224.72215 C 203.43707,224.13038 202.17533,224.20623 201.12451,223.99607 C 201.04147,223.91303 195.79367,224.11552 195.31586,223.99607 C 193.79981,223.61706 192.21987,222.44808 190.95937,221.81782 C 189.55901,221.11765 186.77746,221.45478 184.78768,221.45478 C 182.84717,221.45478 181.7635,221.45478 179.70511,221.45478 C 177.48517,221.45478 175.18421,221.31437 173.17038,221.81782 C 171.46443,222.24431 169.71071,222.59198 168.45085,222.90695 C 167.13355,223.23627 165.65628,225.90696 165.18349,226.53735 C 164.5981,227.31787 165.3099,228.49517 165.54653,229.44168 C 165.48044,229.5298 167.286,235.31046 167.36173,235.61337 C 167.80424,237.3834 167.72477,239.17867 167.72477,241.05898 C 167.72477,243.16435 167.7219,244.69512 166.99869,246.14155 C 166.31413,247.51066 164.01131,246.90915 162.6422,247.59371 C 161.44636,248.19163 158.22105,247.59371 156.83355,247.59371 C 155.01835,247.59371 153.20315,247.59371 151.38794,247.59371 C 149.45589,247.59371 148.74041,249.15212 147.75754,250.13499 C 146.76069,251.13184 144.26233,251.22412 142.67497,251.22412 C 141.85506,251.22412 139.69912,249.40891 137.5924,249.40891 C 135.47178,249.40891 133.62388,249.42138 132.14679,248.68283 C 130.71079,247.96483 129.52949,246.6481 127.7903,245.77851 C 125.47498,244.62084 124.16988,245.91283 122.70773,243.9633 C 122.1208,243.18073 122.70773,239.55998 122.70773,238.51769 C 122.70773,236.10236 122.85355,234.35563 121.61861,232.70904 C 120.53073,231.25854 118.82267,230.27614 117.9882,229.44168 C 116.55125,228.00473 113.96919,229.63598 112.90564,230.16776 C 109.23761,232.00177 113.44682,229.62657 112.17955,230.89384 C 111.59667,231.18528 110.96942,231.37789 110.36435,231.61992 C 107.64316,232.7084 108.63273,229.02379 108.91219,227.62647 C 109.36038,225.38552 108.92631,223.64009 107.46003,222.90695 C 105.75857,222.05622 103.63707,223.7293 102.37746,224.35911 C 101.25024,224.92272 98.015166,223.99607 96.568807,223.99607 C 95.309163,223.99607 94.21471,226.52602 93.664482,227.62647 C 93.45243,228.05058 89.806985,228.95389 89.307995,229.07864 C 88.04073,229.39545 88.581913,226.20746 88.581913,224.72215 C 88.581913,222.36578 89.368741,221.78745 90.760157,221.09174 C 92.334628,220.30451 93.113038,219.32364 94.753604,218.9135 C 97.137412,218.31755 92.885284,216.17742 92.21232,216.00917 C 90.53345,215.58946 88.131234,216.00917 86.40367,216.00917 C 84.467453,216.00917 82.531236,216.00917 80.59502,216.00917 C 80.110966,216.37221 79.626911,216.73525 79.142857,217.0983 C 77.979542,217.97079 76.753608,217.79397 74.78637,218.18742 C 72.578269,218.62904 71.882045,219.0336 71.882045,216.37221 C 71.882045,214.6579 72.608126,213.44117 72.608126,211.28965 C 72.608126,210.41955 70.476592,208.43203 70.066841,208.02228 C 68.67392,206.62936 67.623838,205.21624 66.436435,204.02883 C 65.174565,202.76696 64.651231,200.80147 63.53211,199.30931 C 62.401689,197.80208 61.827235,196.48325 61.353866,194.58978 C 60.932539,192.90447 58.812582,193.79915 58.812582,190.95937 C 58.812582,190.21493 61.467148,188.9176 62.079948,187.69201 C 62.679184,186.49353 62.079948,183.29144 62.079948,181.88336 C 62.079948,179.19093 60.91159,178.89979 59.538663,177.52687 C 57.976205,175.96441 56.647415,174.99866 55.182176,173.53342 C 53.419798,171.77104 52.350377,171.39144 50.825688,170.6291 C 49.878501,169.68191 45.639988,170.26606 44.290957,170.26606 C 42.475754,170.26606 40.66055,170.26606 38.845347,170.26606 C 36.236778,170.26606 36.918583,169.06537 35.577982,167.72477 C 34.306292,166.45308 35.554383,159.80543 36.872687,159.11695 C 38.855671,158.08134 36.403454,158.66052 38.771068,159.25243 C 40.189582,159.60706 43.072377,163.12203 44.290957,163.73132 C 45.868585,164.52014 47.888378,162.12238 48.647444,161.55308 C 49.841455,160.65757 52.997684,161.10084 54.093054,160.827 C 55.412953,160.49702 53.023199,156.12674 53.003932,156.10747 C 51.706862,154.8104 50.555467,154.11487 49.736566,152.47706 C 48.781996,150.56792 51.06228,149.15055 52.277851,148.84666 C 53.873571,148.44773 54.643827,146.78115 55.545216,145.57929 C 57.187639,143.3894 58.522051,145.36127 56.997379,142.31193 C 56.424439,141.16605 54.630251,139.21872 53.730013,138.31848 C 52.401353,136.98982 50.667859,135.69828 49.373526,135.05111 C 48.901948,134.81533 49.373526,131.07303 49.373526,129.96855 C 49.373526,129.50927 46.988878,126.65141 46.469201,125.61206 C 45.855148,124.38395 45.118514,124.31998 46.10616,122.34469 C 46.812527,120.93196 48.393845,120.47477 49.736566,119.80341 C 50.78346,119.27996 50.825688,117.13912 50.825688,115.44692 C 50.825688,113.0751 50.639002,111.99287 49.373526,110.72739 C 48.027887,109.38175 46.203687,109.27523 43.927916,109.27523 C 43.033567,109.27523 40.521208,111.37646 39.934469,111.81651 C 37.952755,113.3028 40.60851,114.72084 37.030144,114.72084 C 34.917042,114.72084 32.431782,114.75113 30.858453,114.3578 C 30.011868,114.14615 29.428494,113.35461 28.68021,112.90564 z"
     id="path2890"
     sodipodi:nodetypes="cssssscsssssssscssssssssscssssssssssssssssscssssssssssscssssssssssssssssssscssssssscssssssssssssssssscsssssssssscssssssssssssssssssssscssssssssssscssssssscsssssssssssssssscsssssssssssscssssssssssssscsssssssssssssssssssssssssc" />
  <path
     style="fill:#3fd7dc;fill-rule:evenodd;stroke:none;stroke-width:1px;stroke-linecap:butt;stroke-linejoin:miter;stroke-opacity:1;fill-opacity:1"
     d="M 74.4375,-0.25 C 74.796705,0.32327133 75.219532,0.87656469 75.5,1.4375 C 76.785369,4.0082385 79.819916,5.597458 81.6875,6.53125 C 84.283305,7.8291532 84.21875,10.620046 84.21875,13.4375 C 84.21875,15.77696 83.875,17.950746 83.875,20.34375 C 83.874996,22.511061 85.116074,25.584824 86.40625,26.875 C 88.681298,29.150048 88.675369,31.82206 91.84375,33.40625 C 94.339835,34.654293 96.707964,35.103982 99.125,36.3125 C 101.87402,37.687009 103.68707,39.687284 106.375,41.03125 C 108.42427,42.055884 111.40511,41.358807 113.625,42.46875 C 116.64294,43.977724 116.50025,46.000984 117.25,49 C 118.00627,52.025072 114.86538,52.748077 112.53125,52.28125 C 109.64467,51.703934 108.2457,51.388475 105.65625,50.09375 C 102.82009,48.675668 101.20157,50.732822 98.375,47.90625 C 95.922751,45.453999 93.895131,46.708684 91.5,47.90625 C 88.703332,49.304584 87.49168,51.556767 84.59375,52.28125 C 82.21009,52.877164 79.592662,52.737282 77.3125,52.28125 C 73.700469,51.558843 72.809461,53.471029 70.0625,55.53125 C 67.798752,57.229061 66.373523,59.818407 65.71875,62.4375 C 64.92188,65.624961 62.994483,66.974267 61,68.96875 C 58.971247,70.997501 56.573918,70.214783 54.09375,69.71875 C 52.076688,69.315335 48.272156,66.053406 47.1875,64.96875 C 44.945169,62.726416 43.279023,66.0625 40.65625,66.0625 C 38.369609,66.062499 35.742732,66.8125 33.03125,66.8125 C 29.651954,66.812499 29.358649,64.403347 28.6875,61.71875 C 27.938974,58.724646 24.096415,58.8125 21.78125,58.8125 C 19.018924,58.812502 17.634364,57 14.875,57 C 12.102134,57 10.300562,56.95014 7.625,56.28125 C 4.5819946,55.5205 3.0233967,53.823679 -0.5,53.75 L -0.5,277 L 343.9375,277 C 343.95536,276.31326 344.00074,275.59006 344.15625,274.8125 C 344.71176,272.035 344.70016,270.09967 345.96875,267.5625 C 347.26147,264.97706 350.46736,264.31481 351.78125,262.125 C 352.94628,260.18326 350.98821,256.20304 349.96875,254.84375 C 348.50809,252.8962 346.88518,250.13449 346.34375,247.96875 C 345.60302,245.00582 349.00175,244.28037 351.0625,243.25 C 353.72427,241.91912 355.81903,241.02472 357.96875,238.875 C 360.0325,236.81124 360.59558,234.11766 361.21875,231.625 C 361.98619,228.55522 360.41037,226.44162 358.6875,224.71875 C 356.55252,222.58377 353.02459,224.62219 351.4375,225.8125 C 348.69311,227.8708 347.93931,228.47702 344.53125,227.625 C 341.99564,226.99112 340.01966,228.6415 338,230.15625 C 335.82008,231.79118 336.29558,236.03841 332.53125,234.15625 C 330.46537,233.12331 327.19287,232.19666 324.90625,231.625 C 322.49598,231.02243 319.83688,229.80906 317.65625,228.71875 C 317.63004,228.72529 312.17062,226.07391 311.125,225.8125 C 309.12825,225.31332 306.28801,225.8125 304.21875,225.8125 C 301.08118,225.81251 299.42348,226.8777 296.96875,228.71875 C 294.65513,230.45396 292.85054,232.27219 291.15625,234.53125 C 289.22743,237.10303 288.32686,239.17313 286.0625,241.4375 C 284.47928,243.0207 284.06636,246.33989 282.09375,248.3125 C 280.29832,250.10792 277.27853,250.875 274.8125,250.875 C 271.96975,250.875 269.97441,251.82529 267.5625,253.03125 C 265.51929,254.05285 262.43496,252.68877 260.3125,253.75 C 257.55336,255.12956 255.02004,256.23997 252.6875,257.40625 C 250.43522,258.53238 247.7181,260.17204 245.78125,260.65625 C 245.51874,260.72187 245.52726,260.17953 245.40625,259.9375 C 243.56501,260.3978 239.8825,255.85124 238.53125,254.5 C 236.32442,252.29315 235.30472,249.98049 232.71875,248.6875 C 230.45272,247.55449 228.11804,244.86571 226.90625,243.25 C 225.45411,241.31382 222.77152,238.69582 221.09375,237.4375 C 218.81446,235.72803 216.25663,234.64394 213.84375,233.4375 C 212.00499,232.51812 210.38888,230.33451 208.8125,228.65625 C 208.56273,228.60092 208.30551,228.48088 208.03125,228.34375 C 206.58109,227.61868 205.42554,226.11303 204.03125,224.71875 C 203.4395,224.12698 202.17582,224.21016 201.125,224 C 201.04196,223.91697 195.79031,224.11945 195.3125,224 C 193.79645,223.621 192.22925,222.44276 190.96875,221.8125 C 189.56839,221.11232 186.77103,221.46875 184.78125,221.46875 C 182.84075,221.46876 181.77714,221.46875 179.71875,221.46875 C 177.49881,221.46876 175.17008,221.30905 173.15625,221.8125 C 171.4503,222.23898 169.69736,222.59128 168.4375,222.90625 C 167.1202,223.23557 165.66029,225.90086 165.1875,226.53125 C 164.60211,227.31177 165.29462,228.49099 165.53125,229.4375 C 165.46517,229.52562 167.29927,235.32209 167.375,235.625 C 167.81752,237.39503 167.71875,239.18219 167.71875,241.0625 C 167.71874,243.16787 167.72321,244.70982 167,246.15625 C 166.31544,247.52535 164.02536,246.90919 162.65625,247.59375 C 161.46041,248.19168 158.23125,247.59375 156.84375,247.59375 C 155.02854,247.59376 153.19021,247.59375 151.375,247.59375 C 149.44295,247.59376 148.73287,249.14213 147.75,250.125 C 146.75315,251.12185 144.27486,251.21875 142.6875,251.21875 C 141.86759,251.21875 139.70047,249.40625 137.59375,249.40625 C 135.47312,249.40625 133.63334,249.42605 132.15625,248.6875 C 130.72025,247.9695 129.52044,246.65084 127.78125,245.78125 C 125.46593,244.62359 124.1809,245.91828 122.71875,243.96875 C 122.13182,243.18618 122.71875,239.57354 122.71875,238.53125 C 122.71875,236.11593 122.85994,234.36534 121.625,232.71875 C 120.53712,231.26824 118.83447,230.27196 118,229.4375 C 116.56305,228.00055 113.9698,229.62447 112.90625,230.15625 C 112.35765,230.43055 112.27211,230.48149 112.03125,230.59375 C 112.3765,230.46891 112.64819,230.44556 112.1875,230.90625 C 111.60462,231.19769 110.98007,231.38297 110.375,231.625 C 107.65381,232.71348 108.62679,229.02232 108.90625,227.625 C 109.35444,225.38406 108.93503,223.63939 107.46875,222.90625 C 105.76729,222.05552 103.63461,223.71394 102.375,224.34375 C 101.24778,224.90735 98.008859,224 96.5625,224 C 95.302853,224.00001 94.206478,226.52455 93.65625,227.625 C 93.444198,228.04912 89.81149,228.969 89.3125,229.09375 C 88.045231,229.41056 88.59375,226.20406 88.59375,224.71875 C 88.593746,222.36238 89.358584,221.78946 90.75,221.09375 C 92.324473,220.30652 93.109434,219.31639 94.75,218.90625 C 97.133811,218.3103 92.891714,216.16825 92.21875,216 C 90.539882,215.58029 88.133814,216 86.40625,216 C 84.470032,216 82.529966,216 80.59375,216 C 80.1097,216.36304 79.640304,216.7307 79.15625,217.09375 C 75.973496,217.46136 72.21274,219.84984 71.9375,215.625 C 72.094419,214.26839 72.59375,213.10641 72.59375,211.28125 C 72.593752,210.41114 70.472251,208.441 70.0625,208.03125 C 68.669579,206.63833 67.624903,205.21866 66.4375,204.03125 C 65.175633,202.76939 64.650371,200.80466 63.53125,199.3125 C 62.400831,197.80527 61.817119,196.48722 61.34375,194.59375 C 60.922422,192.90844 58.8125,193.80853 58.8125,190.96875 C 58.812502,190.22431 61.48095,188.91309 62.09375,187.6875 C 62.692986,186.48901 62.09375,183.28308 62.09375,181.875 C 62.09375,179.18257 60.904177,178.90417 59.53125,177.53125 C 57.968793,175.96879 56.652739,174.99649 55.1875,173.53125 C 53.425123,171.76887 52.337189,171.38734 50.8125,170.625 C 49.865314,169.67781 45.630281,170.28125 44.28125,170.28125 C 42.466046,170.28124 40.658953,170.28125 38.84375,170.28125 C 36.23518,170.28124 36.903101,169.05935 35.5625,167.71875 C 34.757697,166.91394 35.299266,165.67147 35.96875,164.6875 C 35.96875,164.03657 35.843751,163.47026 35.84375,162.78125 C 34.83204,159.465 37.549595,157.62094 40.03125,160.15625 C 40.073974,160.32715 40.062116,160.52189 40.0625,160.71875 C 40.242727,160.73777 40.431401,160.75629 40.65625,160.8125 C 42.074765,161.16713 43.06267,163.10946 44.28125,163.71875 C 45.858877,164.50757 47.897184,162.1318 48.65625,161.5625 C 49.850259,160.66698 52.99838,161.08634 54.09375,160.8125 C 55.413647,160.48252 53.019267,156.11302 53,156.09375 C 51.702929,154.79668 50.568901,154.10656 49.75,152.46875 C 48.795431,150.5596 51.065679,149.14764 52.28125,148.84375 C 53.87697,148.44482 54.629861,146.79561 55.53125,145.59375 C 57.173673,143.40387 58.524672,145.36184 57,142.3125 C 56.42706,141.16661 54.618988,139.21274 53.71875,138.3125 C 52.390088,136.98384 50.669333,135.70967 49.375,135.0625 C 48.90342,134.82671 49.375,131.07323 49.375,129.96875 C 49.374998,129.50947 46.988427,126.66435 46.46875,125.625 C 45.854698,124.39689 45.106104,124.31904 46.09375,122.34375 C 46.800118,120.93102 48.407279,120.48386 49.75,119.8125 C 50.796895,119.28905 50.8125,117.1297 50.8125,115.4375 C 50.812501,113.06568 50.640476,111.98423 49.375,110.71875 C 48.029359,109.37311 46.213271,109.28125 43.9375,109.28125 C 43.04315,109.28125 40.524239,111.37245 39.9375,111.8125 C 37.955788,113.29879 40.609616,114.71875 37.03125,114.71875 C 34.918148,114.71875 32.417079,114.73708 30.84375,114.34375 C 29.997164,114.1321 29.435784,113.35522 28.6875,112.90625 C 28.6875,112.59986 28.6875,108.76802 28.6875,106.375 C 28.6875,104.39233 28.590419,102.32583 29.03125,100.5625 C 29.670515,98.005451 29.942983,98.213267 31.59375,96.5625 C 32.983561,95.172686 32.033657,94.179086 34.125,93.65625 C 35.319657,93.357586 36.061377,91.03574 36.3125,90.03125 C 36.507884,89.249721 37.510285,89.466179 38.125,89.3125 C 38.495389,87.830938 41.107467,85.236283 41.75,84.59375 C 43.271262,83.072485 44.005684,84.289765 44.65625,81.6875 C 45.289197,79.155715 45.512167,79.004771 47.90625,78.40625 C 49.846914,77.921081 51.636749,78.7285 53.71875,77.6875 C 54.787311,77.153216 57.803746,78.0625 59.1875,78.0625 C 61.436277,78.062501 60.620467,80.045741 62.8125,80.59375 C 63.295863,80.714595 65.448942,82.440361 66.8125,82.78125 C 68.518528,83.207759 70.819723,82.78125 72.59375,82.78125 C 72.864346,82.781251 72.371014,83.257973 72.25,83.5 C 75.307996,83.500001 75.153428,84.805686 77.6875,85.3125 C 78.933567,85.561717 80.559662,82.130676 80.96875,81.3125 C 81.839711,79.570579 83.549999,79.70875 84.59375,79.5 C 85.977589,79.223231 86.849638,81.345222 88.21875,81.6875 C 90.051351,82.145648 91.573351,80.96875 93.65625,80.96875 C 95.700292,80.968749 96.519146,79.918354 97.65625,78.78125 C 98.680691,77.756811 100.81812,77.6875 102.375,77.6875 C 103.58096,77.687498 105.67242,79.144668 107.09375,79.5 C 109.42301,80.082317 109.81197,79.435387 110.375,81.6875 C 110.44063,81.950014 110.59774,82.164223 110.71875,82.40625 C 110.91244,83.18102 116.4536,82.78125 117.25,82.78125 C 118.39996,82.781251 119.45871,80.571388 119.8125,79.15625 C 120.29231,77.237007 119.45328,75.156577 118.71875,73.6875 C 117.61445,71.478905 122.0613,70.211842 122.71875,69.71875 C 124.09231,68.688577 126.12361,68.96875 128.15625,68.96875 C 129.88792,68.968748 131.47719,68.625 133.59375,68.625 C 135.77954,68.625002 137.17149,68.672261 138.3125,67.53125 C 138.78133,67.062415 142.76629,67.13248 143.40625,66.8125 C 145.41835,65.806448 142.86348,64.08223 141.9375,63.15625 C 141.00823,62.226979 137.75194,62.8125 136.5,62.8125 C 134.1205,62.812499 133.3152,63.139274 131.78125,63.90625 C 130.25004,64.671856 130.01578,63.203277 128.53125,61.71875 C 127.2676,60.455091 125.66434,60.037317 124.53125,59.1875 C 122.85939,57.933605 121.96875,57.328767 121.96875,55.1875 C 121.96875,53.614228 123.0625,51.749157 123.0625,49.75 C 123.0625,47.283428 123.52556,46.715915 124.53125,45.375 C 125.39008,44.229891 128.45578,45.375 129.59375,45.375 C 130.24543,45.375002 130.80118,45.851723 131.40625,46.09375 C 134.2554,46.093751 134.9835,48.558811 137.59375,47.90625 C 140.46846,47.187569 139.60799,47.5625 141.9375,47.5625 C 143.82328,47.562499 145.72843,47.486795 147.40625,47.90625 C 149.69201,48.47769 149.27045,49.75 152.46875,49.75 C 154.20077,49.750001 155.96348,48.676054 157.9375,48.28125 C 159.13541,48.041668 161.80863,47.5625 164.09375,47.5625 C 166.91778,47.562499 167.32086,47.508356 168.8125,49 C 170.27776,50.465254 171.67682,50.213607 173.53125,49.75 C 175.69319,49.209517 178.53803,49.75 180.78125,49.75 C 182.88908,49.750001 185.06715,49.850401 186.96875,49.375 C 188.90486,48.89097 189.87399,47.938507 190.96875,46.84375 C 191.15954,46.652963 191.59916,44.832936 191.6875,44.65625 C 193.26346,43.474278 191.90026,40.605734 192.78125,38.84375 C 193.43466,37.536937 195.94705,37.75 197.5,37.75 C 199.9946,37.749999 200.93186,37.15766 202.9375,36.65625 C 205.04533,36.129293 206.79744,34.551336 207.65625,33.40625 C 208.67386,32.04943 210.10519,31.431778 211.28125,30.84375 C 212.72386,30.122436 214.23366,29.360094 215.28125,28.3125 C 216.34384,27.249903 218.46899,26.890505 220,26.125 C 221.2139,25.518052 222.54925,23.21399 222.90625,22.5 C 223.64716,21.018171 226.58657,21.40625 228.34375,21.40625 C 230.70046,21.40625 231.52295,21.113526 233.0625,20.34375 C 234.64578,19.552111 237.0246,19.967088 238.53125,20.34375 C 239.31108,20.538706 241.89671,17.32204 242.15625,17.0625 C 243.22403,15.994716 244.52498,15.41252 245.40625,14.53125 C 246.32535,13.612149 249.86805,14.15625 251.21875,14.15625 C 253.39699,14.15625 255.57175,14.15625 257.75,14.15625 C 259.32397,14.15625 260.21056,15.523056 260.3125,15.625 C 260.96095,16.273455 265.81618,15.625 266.84375,15.625 C 269.07887,15.625 270.72587,15.625 273,15.625 C 274.57859,15.625 276.05709,14.196664 277.71875,13.78125 C 279.16605,13.419428 280.29082,13.0625 282.09375,13.0625 C 282.69237,12.912843 283.30118,12.839764 283.90625,12.71875 C 285.66628,12.366744 287.92467,12.71875 289.71875,12.71875 C 291.98085,12.71875 294.00576,12.502881 295.875,13.4375 C 297.90902,14.454507 298.46976,14.124496 300.59375,13.0625 C 301.78821,12.465274 301.11219,10.818901 303.125,9.8125 C 304.49259,9.1287091 305.50058,10.53125 307.125,10.53125 C 309.43938,10.53125 309.95601,11.261534 310.40625,13.0625 C 310.70351,14.251569 311.125,14.857198 311.125,16.34375 C 311.00399,16.827804 310.87101,17.297196 310.75,17.78125 C 310.13926,20.224162 311.81542,21.03344 313.3125,22.15625 C 314.64317,23.154241 315.20568,24.3125 317.3125,24.3125 C 318.84038,24.312499 321.44362,25.40625 323.84375,25.40625 C 325.7206,25.40625 327.61791,25.365415 329.28125,25.78125 C 329.74695,25.897677 330.07867,26.252232 330.3125,26.71875 C 332.18458,25.529137 333.47585,24.747511 335.8125,26.5 C 337.19816,27.539249 338.34331,31.904512 338.71875,33.40625 C 339.47697,36.43917 340.76019,37.701088 342.71875,40.3125 C 344.97985,43.327313 346.23428,43.632858 349.25,42.125 C 351.68298,40.908508 353.67663,39.5625 356.5,39.5625 C 358.90395,39.562499 362.4008,43.246727 364.125,44.28125 C 366.31076,45.592712 368.70691,48.006744 371.03125,49.75 C 372.7164,51.013869 376.39793,48.271357 377.9375,48.65625 C 378.85616,48.885911 380.53585,49.673025 380.84375,49.75 C 384.00456,50.540202 382.19075,54.498375 387.375,51.90625 C 390.9283,50.1296 391.25826,51.102005 393.53125,53.375 C 395.86775,55.711494 397.20754,55.90625 400.4375,55.90625 C 400.59862,55.90625 400.79711,55.90856 400.96875,55.90625 L 400.96875,-0.25 L 74.4375,-0.25 z M 18.8125,84.65625 C 19.59116,84.656249 20.301563,85.322656 20.84375,85.59375 C 21.398347,85.87105 21.617381,86.521532 22.28125,86.6875 C 23.015243,86.870996 23.216687,88.0855 23.34375,88.59375 C 23.475723,89.121642 23.306062,90.025752 23.21875,90.375 C 23.067032,90.981864 22.551216,91.052517 22.03125,91.3125 C 21.540396,91.557927 20.644523,91.228511 20.375,91.09375 C 19.742839,90.777671 19.155557,90.530903 18.59375,90.25 C 18.003941,89.955093 17.540679,89.846107 16.78125,89.65625 C 16.161814,89.501391 15.292432,89.65625 14.65625,89.65625 C 14.424757,89.65625 14.261003,89.400352 14.0625,89.28125 C 14.017919,88.917472 14.075081,87.843347 14.1875,87.28125 C 14.334151,86.547995 14.411375,85.910218 15,85.46875 C 15.532093,85.069683 16.176842,85.026102 16.78125,84.875 C 17.488391,84.698213 18.089733,84.65625 18.8125,84.65625 z M 31.3125,122.875 C 32.167802,122.875 32.980032,122.88064 33.71875,123.25 C 34.256631,123.51894 34.708511,123.88218 35.03125,124.3125 C 35.273264,124.63519 35.520102,125.54916 35.625,125.96875 C 35.82275,126.75974 36.112267,126.95602 36.5625,127.40625 C 37.071398,127.91515 37.678382,127.99826 38.125,128.59375 C 38.469043,129.05248 38.46875,129.76805 38.46875,130.375 C 38.468751,131.08961 38.46875,131.81663 38.46875,132.53125 C 38.468751,133.49169 38.574711,133.86279 38,134.4375 C 37.572893,134.8646 37.284394,135.24685 36.90625,135.625 C 36.598457,135.93279 35.750555,136.03097 35.375,136.21875 C 34.848615,136.48194 33.782524,136.12564 33.46875,135.96875 C 33.048689,135.75872 32.673558,135.17355 32.40625,134.90625 C 31.870964,134.37096 32.123286,134.14966 31.21875,133.96875 C 30.565014,133.838 30.308974,133.38193 29.78125,133.25 C 29.014938,133.05841 29.167961,132.51565 29.3125,131.9375 C 29.428525,131.47339 30.603621,131.05756 30.96875,130.875 C 31.570924,130.57391 32.036792,130.05141 32.28125,129.5625 C 32.682717,128.75956 32.116483,128.42898 31.6875,128 C 31.195058,127.50756 31.034772,126.90977 30.59375,126.46875 C 30.340602,126.2156 29.185245,126.34375 28.71875,126.34375 C 27.90745,126.34375 27.759938,127.01138 27.5,127.53125 C 27.312315,127.90662 27.5,128.88177 27.5,129.3125 C 27.5,129.7144 27.48664,129.47782 27.625,130.03125 C 26.908929,130.03126 25.364367,130.03125 24.28125,130.03125 C 23.592769,130.03126 22.690186,129.94598 22.03125,129.78125 C 21.346518,129.61007 20.734277,128.9371 20.59375,128.375 C 20.399044,127.59618 19.645057,127.73227 19.875,126.8125 C 20.031438,126.18675 21.000302,125.8279 21.4375,125.5 C 21.940989,125.12238 22.707085,125.06542 23.34375,124.90625 C 24.001296,124.74186 24.623539,124.90698 25.125,124.65625 C 25.88301,124.27724 26.573526,124.19761 27.28125,123.84375 C 27.966041,123.50136 28.306718,123.31395 29.0625,123.125 C 29.802748,122.93994 30.518944,122.875 31.3125,122.875 z M 19.875,155.53125 C 20.547149,155.53125 21.393759,155.62188 21.90625,155.75 C 22.573924,155.91691 22.912899,156.2141 23.09375,156.9375 C 23.250614,157.56496 23.09375,158.43928 23.09375,159.09375 C 23.09375,159.76866 23.09375,160.45009 23.09375,161.125 C 23.09375,161.81423 23.154324,162.50771 23,163.125 C 22.808837,163.88967 22.950468,164.28657 22.625,164.9375 C 22.327298,165.53292 22.49621,166 21.6875,166 C 20.895537,166 20.914982,165.81617 20.71875,165.03125 C 20.562577,164.40656 20.71875,163.5555 20.71875,162.90625 C 20.71875,162.27104 20.71875,161.63521 20.71875,161 C 20.71875,160.20349 20.697876,159.7395 20.375,159.09375 C 20.133443,158.61063 19.727243,158.29823 19.53125,157.90625 C 19.251012,157.34577 19.007984,156.99334 18.5625,156.4375 C 18.494786,156.46334 18.46875,156.46095 18.46875,156.34375 C 18.502835,156.38636 18.530541,156.39762 18.5625,156.4375 C 18.813441,156.34175 19.440662,155.53125 19.875,155.53125 z M 42.1875,185.4375 C 42.331681,185.44156 42.454002,185.50175 42.53125,185.65625 C 43.31339,185.81267 43.87811,185.97498 44.1875,186.59375 C 44.335335,186.88942 44.861657,187.6875 45.25,187.6875 C 45.832001,187.6875 46.596559,187.82742 47.15625,187.6875 C 47.718895,187.54684 48.315199,187.56251 48.9375,187.5625 C 49.56674,187.5625 49.946496,187.86163 50.625,188.03125 C 51.286108,188.19652 51.545826,188.53545 51.34375,189.34375 C 51.222978,189.82683 51.334583,191 50.375,191 C 49.700089,191 49.018662,191 48.34375,191 C 47.64937,191 46.954732,190.91056 46.4375,190.78125 C 45.875265,190.64069 45.151334,190.45971 44.4375,190.28125 C 43.773333,190.11521 42.895761,190.24475 42.28125,189.9375 C 41.484456,189.5391 40.874924,189.7497 40.625,188.75 C 40.424387,187.94754 40.457793,187.24066 40.84375,186.46875 C 41.099348,185.95755 41.754958,185.42533 42.1875,185.4375 z M 86.6875,246.96875 C 86.868392,246.96958 87.055347,247 87.1875,247 C 87.922034,247 88.6642,246.75055 88.84375,247.46875 C 88.961432,247.93949 88.96875,248.61106 88.96875,249.25 C 88.968747,249.88521 88.96875,250.52104 88.96875,251.15625 C 88.968747,251.69137 88.13417,252.49083 87.90625,252.71875 C 87.349254,253.27574 86.741555,253.8522 86.34375,254.25 C 86.224649,254.3691 86.119102,254.47465 86,254.59375 C 85.478381,255.11537 85.22708,255.27292 84.8125,255.6875 C 84.4319,256.06809 83.947628,256.66724 83.71875,257.125 C 83.376094,257.81034 83.246958,258.06555 82.78125,258.53125 C 82.193729,259.11879 81.384975,259.33627 80.875,259.71875 C 80.214242,260.21431 79.161966,259.69321 78.71875,259.25 C 78.462691,258.73787 79.431439,258.32463 79.6875,257.8125 C 80.041866,257.10377 80.40625,256.87454 80.40625,256.03125 C 80.406253,255.23723 80.40625,254.45027 80.40625,253.65625 C 80.406253,252.88145 80.267929,252.23207 80.75,251.75 C 81.369387,251.13062 81.962478,250.72876 82.65625,250.3125 C 83.412348,249.85883 84.056174,249.76265 84.4375,249 C 84.719854,248.43528 85.200134,248.29322 85.40625,247.46875 C 85.515444,247.03197 86.144825,246.96625 86.6875,246.96875 z"
     id="path2954"
     sodipodi:nodetypes="cssssssssssssssssssssssssssscccsssssssssssssscssssssssssscssssscsscssssssscssssssssssssssssscsssssssssssscccsssssssssscsssccccssssssssssssssssssssscssssscsssssssscssssssssscssssssssssssssssscssssssssssscssssssssssssssssssscssssssscssssscssssssssssssccccssssssssscsssccsssssssssssssssssssssscsssssssssccsssssssssssscsccccsssssssssssssccssssssssssscsssssssc" />
  <path
     id="path2968"
     style="fill:none;fill-rule:evenodd;stroke:#ff0000;stroke-width:3;stroke-linecap:butt;stroke-linejoin:miter;stroke-opacity:1"
     d="M 120.65299,230.27905 C 122.6682,229.28573 126.68902,227.19855 130.40791,227.19855 C 133.8495,227.19855 137.55131,227.46637 140.67625,226.68514 C 143.68368,225.93328 147.29078,226.17172 150.43118,226.17172 C 154.64605,226.17172 157.27362,225.82633 160.1861,228.7388 C 160.76376,229.31646 165.27508,229.89884 165.0818,230.12868 M 207.42046,228.22539 C 208.77343,229.57836 208.63457,224.44419 209.98755,223.09122 C 212.51828,220.56048 215.58777,218.75085 219.22905,216.93021 C 222.87754,215.10597 224.56609,212.3871 228.98397,211.28263 C 232.37663,210.43446 235.79916,210.60566 239.25231,209.74238 C 242.51588,208.92648 246.24614,210.04759 249.52065,209.22896 C 252.67617,208.44008 256.02539,208.50125 259.27558,207.68871 C 262.5382,206.87305 266.2707,207.99359 269.54392,207.17529 C 272.86085,206.34606 277.30707,203.40659 279.81225,201.5277 C 282.76244,199.31506 285.48297,195.83386 287.00009,192.79962 C 289.00726,188.78528 290.0193,186.88377 291.10743,182.53128 C 292.16696,178.29316 293.1611,176.62044 293.1611,172.26294 C 293.1611,168.93623 293.85948,164.19176 295.21476,161.48118 C 296.54322,158.82426 296.43958,154.57185 295.72818,151.72626 C 294.9858,148.75672 295.72818,144.54208 295.72818,141.45792 C 294.67006,135.98697 295.78577,135.41984 294.18793,131.18958 C 292.58807,127.98986 291.62085,124.05512 291.62085,120.92124 C 291.62085,118.33832 297.02105,114.2095 297.78185,111.16632 C 298.68414,107.55717 297.19777,104.0554 295.21476,101.41139 C 295.60561,99.847997 295.21476,97.019583 295.21476,95.250389 C 296.24021,91.148571 295.84048,87.950254 299.3221,84.468632 C 302.50725,81.283478 304.46214,79.328594 307.53677,76.25396 C 311.01515,72.775586 314.21119,73.971884 314.21119,68.039289 C 314.21119,64.085996 308.20574,62.236146 305.99652,64.44537 C 304.66299,65.778902 298.07738,61.769343 296.2416,60.851451 C 291.47793,58.469617 297.74801,53.680532 299.83552,52.636779 C 303.65705,50.726015 306.33682,48.359294 310.10386,46.475775 C 314.08804,44.483685 315.38751,41.209025 319.85878,40.314772 C 323.81239,39.524049 325.48475,42.892665 329.6137,40.828189 C 333.60005,38.835014 335.42504,35.612143 339.36862,33.640351 C 341.21819,32.715567 335.6828,35.553515 333.72104,36.207436"
     sodipodi:nodetypes="cssssccsssssssssssssccssccssssssssssc" />
  <path
     sodipodi:type="arc"
     style="opacity:1;fill:#000000;fill-opacity:1;stroke:none;stroke-opacity:1"
     id="path3000"
     sodipodi:cx="-8.894495"
     sodipodi:cy="105.10027"
     sodipodi:rx="3.4488859"
     sodipodi:ry="3.4488859"
     d="M -5.4456091,105.10027 A 3.4488859,3.4488859 0 1 1 -12.343381,105.10027 A 3.4488859,3.4488859 0 1 1 -5.4456091,105.10027 z"
     transform="translate(76.964613,93.664482)" />
  <path
     d="M -5.4456091,105.10027 A 3.4488859,3.4488859 0 1 1 -12.343381,105.10027 A 3.4488859,3.4488859 0 1 1 -5.4456091,105.10027 z"
     sodipodi:ry="3.4488859"
     sodipodi:rx="3.4488859"
     sodipodi:cy="105.10027"
     sodipodi:cx="-8.894495"
     id="path3002"
     style="opacity:1;fill:#000000;fill-opacity:1;stroke:none;stroke-opacity:1"
     sodipodi:type="arc"
     transform="translate(78.416776,70.429882)" />
  <path
     sodipodi:type="arc"
     style="opacity:1;fill:#000000;fill-opacity:1;stroke:none;stroke-opacity:1"
     id="path3004"
     sodipodi:cx="-8.894495"
     sodipodi:cy="105.10027"
     sodipodi:rx="3.4488859"
     sodipodi:ry="3.4488859"
     d="M -5.4456091,105.10027 A 3.4488859,3.4488859 0 1 1 -12.343381,105.10027 A 3.4488859,3.4488859 0 1 1 -5.4456091,105.10027 z"
     transform="translate(109.27523,58.086501)" />
  <path
     d="M -5.4456091,105.10027 A 3.4488859,3.4488859 0 1 1 -12.343381,105.10027 A 3.4488859,3.4488859 0 1 1 -5.4456091,105.10027 z"
     sodipodi:ry="3.4488859"
     sodipodi:rx="3.4488859"
     sodipodi:cy="105.10027"
     sodipodi:cx="-8.894495"
     id="path3006"
     style="opacity:1;fill:#000000;fill-opacity:1;stroke:none;stroke-opacity:1"
     sodipodi:type="arc"
     transform="translate(70.429882,53.366972)" />
  <path
     sodipodi:type="arc"
     style="opacity:1;fill:#000000;fill-opacity:1;stroke:none;stroke-opacity:1"
     id="path3008"
     sodipodi:cx="-8.894495"
     sodipodi:cy="105.10027"
     sodipodi:rx="3.4488859"
     sodipodi:ry="3.4488859"
     d="M -5.4456091,105.10027 A 3.4488859,3.4488859 0 1 1 -12.343381,105.10027 A 3.4488859,3.4488859 0 1 1 -5.4456091,105.10027 z"
     transform="translate(42.112713,-1.8152031)" />
  <text
     xml:space="preserve"
     style="font-size:16px;font-style:normal;font-variant:normal;font-weight:bold;font-stretch:normal;text-align:start;line-height:100%;writing-mode:lr-tb;text-anchor:start;fill:#000000;fill-opacity:1;stroke:none;stroke-width:1px;stroke-linecap:butt;stroke-linejoin:miter;stroke-opacity:1;font-family:Arial;-inkscape-font-specification:Arial Bold"
     x="12.706423"
     y="42.112713"
     id="text3781"
     sodipodi:linespacing="100%"><tspan
       sodipodi:role="line"
       id="tspan3783"
       x="12.706423"
       y="42.112713">ФРАКИЯ</tspan></text>
  <text
     sodipodi:linespacing="100%"
     id="text3785"
     y="106.3709"
     x="319.47574"
     style="font-size:16px;font-style:normal;font-variant:normal;font-weight:bold;font-stretch:normal;text-align:start;line-height:100%;writing-mode:lr-tb;text-anchor:start;fill:#000000;fill-opacity:1;stroke:none;stroke-width:1px;stroke-linecap:butt;stroke-linejoin:miter;stroke-opacity:1;font-family:Arial;-inkscape-font-specification:Arial Bold"
     xml:space="preserve"><tspan
       y="106.3709"
       x="319.47574"
       id="tspan3787"
       sodipodi:role="line">МИДИЯ</tspan></text>
  <text
     xml:space="preserve"
     style="font-size:16px;font-style:normal;font-variant:normal;font-weight:bold;font-stretch:normal;text-align:start;line-height:100%;writing-mode:lr-tb;text-anchor:start;fill:#000000;fill-opacity:1;stroke:none;stroke-width:1px;stroke-linecap:butt;stroke-linejoin:miter;stroke-opacity:1;font-family:Arial;-inkscape-font-specification:Arial Bold"
     x="257.75882"
     y="198.22018"
     id="text3789"
     sodipodi:linespacing="100%"><tspan
       sodipodi:role="line"
       id="tspan3791"
       x="257.75882"
       y="198.22018">КИЛИКИЯ</tspan></text>
  <text
     sodipodi:linespacing="100%"
     id="text3793"
     y="133.96199"
     x="126.33813"
     style="font-size:24px;font-style:normal;font-variant:normal;font-weight:bold;font-stretch:normal;text-align:start;line-height:100%;writing-mode:lr-tb;text-anchor:start;fill:#000000;fill-opacity:1;stroke:none;stroke-width:1px;stroke-linecap:butt;stroke-linejoin:miter;stroke-opacity:1;font-family:Arial;-inkscape-font-specification:Arial Bold"
     xml:space="preserve"><tspan
       y="133.96199"
       x="126.33813"
       id="tspan3795"
       sodipodi:role="line">ЛИДИЯ</tspan></text>
  <text
     sodipodi:linespacing="100%"
     id="text3797"
     y="102.37746"
     x="41.02359"
     style="font-size:16px;font-style:normal;font-variant:normal;font-weight:bold;font-stretch:normal;text-align:start;line-height:100%;writing-mode:lr-tb;text-anchor:start;fill:#000000;fill-opacity:1;stroke:none;stroke-width:1px;stroke-linecap:butt;stroke-linejoin:miter;stroke-opacity:1;font-family:Arial;-inkscape-font-specification:Arial Bold"
     xml:space="preserve"><tspan
       y="102.37746"
       x="41.02359"
       id="tspan3799"
       sodipodi:role="line">Троя</tspan></text>
  <text
     xml:space="preserve"
     style="font-size:16px;font-style:normal;font-variant:normal;font-weight:bold;font-stretch:normal;text-align:start;line-height:100%;writing-mode:lr-tb;text-anchor:start;fill:#000000;fill-opacity:1;stroke:none;stroke-width:1px;stroke-linecap:butt;stroke-linejoin:miter;stroke-opacity:1;font-family:Arial;-inkscape-font-specification:Arial Bold"
     x="75.512451"
     y="205.84404"
     id="text3801"
     sodipodi:linespacing="100%"><tspan
       sodipodi:role="line"
       id="tspan3803"
       x="75.512451"
       y="205.84404">Милет</tspan></text>
  <text
     sodipodi:linespacing="100%"
     id="text3805"
     y="183.69856"
     x="75.512451"
     style="font-size:16px;font-style:normal;font-variant:normal;font-weight:bold;font-stretch:normal;text-align:start;line-height:100%;writing-mode:lr-tb;text-anchor:start;fill:#000000;fill-opacity:1;stroke:none;stroke-width:1px;stroke-linecap:butt;stroke-linejoin:miter;stroke-opacity:1;font-family:Arial;-inkscape-font-specification:Arial Bold"
     xml:space="preserve"><tspan
       y="183.69856"
       x="75.512451"
       id="tspan3807"
       sodipodi:role="line">Эфес</tspan></text>
  <text
     xml:space="preserve"
     style="font-size:16px;font-style:normal;font-variant:normal;font-weight:bold;font-stretch:normal;text-align:start;line-height:100%;writing-mode:lr-tb;text-anchor:start;fill:#000000;fill-opacity:1;stroke:none;stroke-width:1px;stroke-linecap:butt;stroke-linejoin:miter;stroke-opacity:1;font-family:Arial;-inkscape-font-specification:Arial Bold"
     x="107.09698"
     y="166.99869"
     id="text3809"
     sodipodi:linespacing="100%"><tspan
       sodipodi:role="line"
       id="tspan3811"
       x="107.09698"
       y="166.99869">Сарды</tspan></text>
  <text
     sodipodi:linespacing="100%"
     id="text3813"
     y="150.66187"
     x="63.169067"
     style="font-size:16px;font-style:normal;font-variant:normal;font-weight:bold;font-stretch:normal;text-align:start;line-height:100%;writing-mode:lr-tb;text-anchor:start;fill:#000000;fill-opacity:1;stroke:none;stroke-width:1px;stroke-linecap:butt;stroke-linejoin:miter;stroke-opacity:1;font-family:Arial;-inkscape-font-specification:Arial Bold"
     xml:space="preserve"><tspan
       y="150.66187"
       x="63.169067"
       id="tspan3815"
       sodipodi:role="line">Смирна</tspan></text>
  <text
     xml:space="preserve"
     style="font-size:12px;font-style:italic;font-variant:normal;font-weight:bold;font-stretch:normal;text-align:start;line-height:100%;writing-mode:lr;text-anchor:start;fill:#4079bf;fill-opacity:1;stroke:none;stroke-width:1px;stroke-linecap:butt;stroke-linejoin:miter;stroke-opacity:1;font-family:Arial;-inkscape-font-specification:Arial Bold Italic"
     x="115.44692"
     y="19.241154"
     id="text2404"
     sodipodi:linespacing="100%"><tspan
       sodipodi:role="line"
       id="tspan2406"
       x="115.44692"
       y="19.241154">Черное море</tspan></text>
  <text
     sodipodi:linespacing="100%"
     id="text2408"
     y="269.37616"
     x="99.836174"
     style="font-size:12px;font-style:italic;font-variant:normal;font-weight:bold;font-stretch:normal;text-align:start;line-height:100%;writing-mode:lr;text-anchor:start;fill:#4079bf;fill-opacity:1;stroke:none;stroke-width:1px;stroke-linecap:butt;stroke-linejoin:miter;stroke-opacity:1;font-family:Arial;-inkscape-font-specification:Arial Bold Italic"
     xml:space="preserve"><tspan
       y="269.37616"
       x="99.836174"
       id="tspan2410"
       sodipodi:role="line">Средиземное море</tspan></text>
</svg>
